<svg width="593" height="575" fill="none" xmlns="http://www.w3.org/2000/svg"><g clip-path="url(#clip0_22_2902)"><path d="M92.753 66.338a46.472 46.472 0 00-4.737-20.635A46.421 46.421 0 0074.62 29.319a46.335 46.335 0 00-40.407-7.982 46.368 46.368 0 00-18.61 10.062A46.43 46.43 0 003.392 48.686 46.475 46.475 0 006.459 89.8l.14.165c1.776 3.011 3.997 5.082 6.256 8.309l26.929 35.696a8.358 8.358 0 0013.363 0l26.395-35.112a101.146 101.146 0 006.726-8.893l.101-.127a46.164 46.164 0 006.384-23.501zM46.37 86.562a20.404 20.404 0 01-11.344-3.445 20.435 20.435 0 01-7.52-9.173 20.46 20.46 0 014.426-22.275 20.398 20.398 0 0122.252-4.43 20.423 20.423 0 019.163 7.527 20.455 20.455 0 013.441 11.356 20.448 20.448 0 01-5.976 14.457 20.402 20.402 0 01-14.442 5.983zm546.617 261.362a20.465 20.465 0 00-8.013-16.274 20.418 20.418 0 00-17.784-3.503 20.439 20.439 0 00-13.576 12.021 20.475 20.475 0 001.303 18.097v.076c.786 1.271 1.776 2.274 2.766 3.659l11.865 15.739a3.702 3.702 0 002.951 1.474 3.691 3.691 0 002.95-1.474l11.663-15.472a43.92 43.92 0 002.969-3.939v-.063a20.265 20.265 0 002.906-10.341zm-20.444 8.893a8.994 8.994 0 01-8.312-5.56 9.018 9.018 0 011.95-9.816 8.99 8.99 0 0113.843 1.365 9.05 9.05 0 01.836 8.457 9.013 9.013 0 01-8.317 5.579v-.025z" fill="#F5F5F5"/><path d="M564.79 573.717c0 .178-121.103.33-270.466.33-149.364 0-270.492-.152-270.492-.33 0-.178 121.077-.33 270.492-.33 149.414 0 270.466.139 270.466.33z" fill="#263238"/><path d="M542.442 62.705H46.446v31.81h495.996v-31.81z" fill="#E0E0E0"/><path d="M542.379 123.732H46.383v278.462h495.996V123.732z" fill="#fff"/><path d="M46.446 94.286h68.108l6.751-19.678h110.392l6.752 19.678h304.006v30.12H46.446v-30.12z" fill="#EBEBEB"/><path d="M62.816 75.395a3.738 3.738 0 01-2.303 3.45 3.727 3.727 0 01-5.087-2.721 3.738 3.738 0 011.587-3.834 3.728 3.728 0 012.073-.63 3.716 3.716 0 013.73 3.735zm11.536 0a3.738 3.738 0 01-2.303 3.45 3.727 3.727 0 01-5.087-2.721 3.738 3.738 0 011.586-3.834 3.728 3.728 0 012.073-.63 3.716 3.716 0 013.73 3.735zm11.535 0a3.737 3.737 0 01-2.303 3.45 3.727 3.727 0 01-5.087-2.721 3.738 3.738 0 011.586-3.834 3.728 3.728 0 012.073-.63 3.716 3.716 0 013.45 2.304c.187.454.283.94.281 1.431z" fill="#263238"/><path d="M487.621 118.41H147.333a9.435 9.435 0 01-6.676-2.769 9.453 9.453 0 01-2.765-6.683c0-2.507.994-4.911 2.765-6.683a9.435 9.435 0 016.676-2.768h340.288c2.504 0 4.905.995 6.676 2.768a9.457 9.457 0 010 13.366 9.435 9.435 0 01-6.676 2.769z" fill="#FAFAFA"/><path d="M155.48 110.216v3.201h-1.611v-2.947c0-.902-.419-1.27-1.13-1.27-.71 0-1.345.482-1.345 1.499v2.769h-1.612v-7.749h1.612v2.693a2.538 2.538 0 011.777-.661 2.179 2.179 0 011.737.686 2.176 2.176 0 01.572 1.779zm5.051 2.922c-.378.242-.82.366-1.269.355a1.842 1.842 0 01-1.527-.498 1.84 1.84 0 01-.554-1.509V109.2h-.863v-1.271h.863v-1.359h1.611v1.359h1.384v1.271h-1.384v2.286a.648.648 0 00.698.737 1.04 1.04 0 00.648-.216l.393 1.131zm4.34 0c-.38.239-.821.363-1.269.355a1.842 1.842 0 01-1.527-.498 1.84 1.84 0 01-.554-1.509V109.2h-.863v-1.271h.863v-1.359h1.611v1.359h1.396v1.271h-1.396v2.286a.66.66 0 00.698.737c.238.003.47-.073.66-.216l.381 1.131zm7.03-2.516a2.716 2.716 0 01-.756 2.05 2.706 2.706 0 01-2.023.821 2.17 2.17 0 01-1.675-.673v2.541h-1.612v-7.622h1.574v.648a2.19 2.19 0 011.751-.725 2.705 2.705 0 012.741 2.96zm-1.637 0a1.424 1.424 0 00-.959-1.22 1.42 1.42 0 00-1.858 1.113 1.42 1.42 0 001.396 1.657 1.397 1.397 0 001.057-.456 1.405 1.405 0 00.364-1.094zm2.323-1.867a1.012 1.012 0 011.008-.903 1.013 1.013 0 011.009.903 1.022 1.022 0 01-.252.791 1.018 1.018 0 01-1.171.25 1.008 1.008 0 01-.553-.619 1.022 1.022 0 01-.041-.422zm0 3.722a1.012 1.012 0 011.008-.903 1.013 1.013 0 011.009.903 1.022 1.022 0 01-.252.791 1.018 1.018 0 01-1.171.25 1.008 1.008 0 01-.553-.619 1.022 1.022 0 01-.041-.422zm5.989-7.8h1.447l-3.426 9.769h-1.434l3.413-9.769zm3.313 0h1.433l-3.413 9.769h-1.447l3.427-9.769z" fill="#E0E0E0"/><path d="M487.316 173.81H190.835a16.732 16.732 0 01-11.836-4.908 16.763 16.763 0 01.004-23.693 16.742 16.742 0 0111.832-4.911h296.481a16.742 16.742 0 0111.832 4.911 16.763 16.763 0 01.004 23.693 16.732 16.732 0 01-11.836 4.908z" fill="#FAFAFA"/><path d="M487.316 173.81a17.605 17.605 0 006.853-1.55 16.906 16.906 0 009.01-10.163c.601-1.986.834-4.066.685-6.136a16.665 16.665 0 00-1.878-6.631 16.822 16.822 0 00-4.987-5.691 16.485 16.485 0 00-7.678-2.998 38.737 38.737 0 00-4.429-.127h-47.245l-246.787.089a16.482 16.482 0 00-8.413 2.337 16.425 16.425 0 00-7.992 14.526 16.437 16.437 0 008.728 14.095 17 17 0 008.236 1.906h82.714l110.951.076 74.872.102h27.398-27.398l-74.872.114-110.951.063h-82.714a17.462 17.462 0 01-8.541-1.981 17.08 17.08 0 01-7.602-8.129 17.093 17.093 0 015.067-20.436 17.058 17.058 0 0110.517-3.626l246.85.419h47.246c1.494-.036 2.99.01 4.479.14a16.777 16.777 0 017.805 3.087 16.752 16.752 0 016.954 12.551 17.393 17.393 0 01-.736 6.225 17.088 17.088 0 01-2.538 4.891 16.838 16.838 0 01-6.662 5.373 17.238 17.238 0 01-5.077 1.359c-1.256.115-1.865.115-1.865.115z" fill="#263238"/><path d="M197.637 160.623l.622-1.397a4.779 4.779 0 002.665.839c1.104 0 1.548-.369 1.548-.864 0-1.512-4.683-.47-4.683-3.468 0-1.372 1.104-2.541 3.401-2.541a5.428 5.428 0 012.792.711l-.571 1.423a4.506 4.506 0 00-2.233-.635c-1.105 0-1.536.419-1.536.927 0 1.487 4.683.458 4.683 3.418 0 1.346-1.117 2.54-3.414 2.54a5.655 5.655 0 01-3.274-.953zm13.87-1.791h-4.682a1.66 1.66 0 001.776 1.271 2.118 2.118 0 001.549-.61l.951 1.042a3.596 3.596 0 01-1.745.927 3.596 3.596 0 01-3.577-1.285 3.613 3.613 0 01-.756-1.827 3.152 3.152 0 012.039-2.991 3.13 3.13 0 011.26-.198 3.059 3.059 0 012.323.892 3.072 3.072 0 01.9 2.322c0 .114-.025.305-.038.457zm-4.708-1.054h3.046a1.547 1.547 0 00-3.046 0zm11.244.102v3.544h-1.675v-.775a2.045 2.045 0 01-1.891.864c-1.447 0-2.31-.813-2.31-1.88s.774-1.855 2.652-1.855h1.434c0-.762-.469-1.27-1.434-1.27a2.96 2.96 0 00-1.776.571l-.647-1.27a4.768 4.768 0 012.665-.75c1.84.077 2.982.953 2.982 2.821zm-1.79 1.587v-.635h-1.269c-.837 0-1.104.305-1.104.724 0 .42.381.75 1.003.75a1.34 1.34 0 00.826-.189c.247-.152.438-.38.544-.65zm7.259-4.331v1.651h-.406a1.515 1.515 0 00-1.222.462 1.528 1.528 0 00-.415 1.24v2.935h-1.802v-6.2h1.713v.814a2.543 2.543 0 012.132-.902zm.559 3.188a3.202 3.202 0 013.451-3.189 2.833 2.833 0 012.767 1.576l-1.396.749a1.536 1.536 0 00-1.383-.851 1.716 1.716 0 000 3.43 1.509 1.509 0 001.383-.851l1.396.762a2.857 2.857 0 01-2.767 1.563 3.197 3.197 0 01-3.451-3.189zm13.54-.445v3.545h-1.802v-3.278c0-1.003-.457-1.461-1.269-1.461-.812 0-1.485.534-1.485 1.677v3.062h-1.802v-8.55h1.802v2.998a2.716 2.716 0 011.967-.737 2.421 2.421 0 012.494 1.676c.111.345.143.71.095 1.068zm4.442 2.503a1.115 1.115 0 011.116-1.118 1.115 1.115 0 011.117 1.118 1.117 1.117 0 11-2.233 0zm3.02 0a1.121 1.121 0 01.698-1.024 1.116 1.116 0 011.449 1.467 1.117 1.117 0 01-1.03.688 1.101 1.101 0 01-1.117-1.131zm3.008 0a1.115 1.115 0 011.116-1.118 1.116 1.116 0 011.117 1.118 1.123 1.123 0 01-.689 1.033 1.123 1.123 0 01-.855 0 1.112 1.112 0 01-.689-1.033z" fill="#E0E0E0"/><path d="M139.579 202.952c0 .19-11.903.33-26.573.33s-26.573-.14-26.573-.33c0-.191 11.89-.331 26.573-.331s26.573.178 26.573.331z" fill="#000"/><path d="M141.661 218.183H86.433v55.286h55.228v-55.286z" fill="#FF725E"/><path d="M477.24 231.217c0 .178-68.527.33-153.095.33-84.567 0-153.107-.152-153.107-.33 0-.178 68.527-.33 153.107-.33 84.581 0 153.095.139 153.095.33zm-222.446 20.808c0 .191-18.071.331-40.343.331-22.271 0-40.354-.14-40.354-.331 0-.19 18.058-.33 40.354-.33 22.297 0 40.343.153 40.343.33z" fill="#000"/><path d="M428.307 271.335c0 .178-56.916.33-127.105.33-70.19 0-127.105-.152-127.105-.33 0-.178 56.902-.343 127.105-.343 70.202 0 127.105.152 127.105.343z" fill="#E0E0E0"/><path d="M139.579 302.039c0 .178-11.903.33-26.573.33s-26.573-.152-26.573-.33c0-.178 11.89-.33 26.573-.33s26.573.114 26.573.33z" fill="#000"/><path d="M141.661 317.207H86.433v55.286h55.228v-55.286z" fill="#FF725E"/><path d="M495.438 330.228c0 .191-72.626.331-162.194.331-89.567 0-162.206-.14-162.206-.331 0-.19 72.614-.33 162.206-.33 89.593 0 162.194.152 162.194.33zm-240.644 20.821c0 .178-18.071.331-40.343.331-22.271 0-40.354-.153-40.354-.331 0-.177 18.058-.33 40.354-.33 22.297 0 40.343.153 40.343.33z" fill="#000"/><path d="M472.57 370.346c0 .191-66.814.33-149.224.33s-149.249-.139-149.249-.33 66.814-.33 149.249-.33c82.436 0 149.224.152 149.224.33z" fill="#E0E0E0"/><path d="M542.442 402.867c0-2.185-.101-133.133-.266-340.162l.266.266H46.484l.33-.33v340.163l-.304-.305 495.996.305-495.996.292h-.305V62.311h496.593v.267c-.242 207.156-.356 338.104-.356 340.289z" fill="#263238"/><path d="M218.297 87.35c0 .19-17.513.33-39.111.33-21.599 0-39.112-.14-39.112-.33 0-.191 17.513-.33 39.112-.33 21.598 0 39.111.152 39.111.33z" fill="#000"/><path d="M147.739 149.876H78.273v20.948h69.466v-20.948z" fill="#455A64"/><path d="M270.745 204.743c0 .19-21.573.33-48.222.33-26.65 0-48.223-.14-48.223-.33 0-.191 21.573-.331 48.223-.331 26.649 0 48.222.153 48.222.331zm0 97.296c0 .178-21.573.33-48.222.33-26.65 0-48.223-.152-48.223-.33 0-.178 21.573-.33 48.223-.33 26.649 0 48.222.114 48.222.33zm210.188-139.408a8.07 8.07 0 01-7.467-4.982 8.092 8.092 0 011.747-8.811 8.067 8.067 0 0112.423 1.232 8.084 8.084 0 01-6.703 12.561zm0-14.876a6.793 6.793 0 00-6.293 4.194 6.814 6.814 0 001.466 7.425 6.8 6.8 0 0011.616-4.81 6.81 6.81 0 00-6.789-6.809z" fill="#FF725E"/><path d="M490.844 166.213a.643.643 0 01-.457-.191l-5.254-5.221a.631.631 0 01-.186-.451.643.643 0 01.186-.451.636.636 0 01.901 0l5.254 5.221a.647.647 0 01-.444 1.093z" fill="#FF725E"/><path d="M357.61 250.602c0 .178-20.774.331-46.409.331-25.634 0-46.42-.153-46.42-.331 0-.177 20.786-.33 46.42-.33 25.635 0 46.409.14 46.409.33zm59.986-1.435c0 .191-10.875.33-24.276.33s-24.289-.139-24.289-.33c0-.19 10.875-.33 24.289-.33 13.413 0 24.276.152 24.276.33zm-60.431 101.882c0 .178-20.773.331-46.408.331-25.634 0-46.408-.153-46.408-.331 0-.177 20.774-.33 46.408-.33 25.635 0 46.408.153 46.408.33z" fill="#000"/><path d="M108.044 377.193c-10.304 5.336-18.197 14.533-23.87 24.658-5.673 10.125-9.34 21.215-12.957 32.305l-3.172 56.874c11.98-20.402 21.573-44.386 24.187-67.913l-7.97-.712c5.343-.813 9.836-4.687 12.691-9.286 2.855-4.599 4.315-9.896 5.749-15.117l-9.721 1.448a36.142 36.142 0 0015.063-22.257z" fill="#455A64"/><path opacity=".3" d="M108.044 377.193c-10.304 5.336-18.197 14.533-23.87 24.658-5.673 10.125-9.34 21.215-12.957 32.305l-3.172 56.874c11.98-20.402 21.573-44.386 24.187-67.913l-7.97-.712c5.343-.813 9.836-4.687 12.691-9.286 2.855-4.599 4.315-9.896 5.749-15.117l-9.721 1.448a36.142 36.142 0 0015.063-22.257z" fill="#000"/><path d="M66.268 504.279s-26.002-31.149-25.697-60.888h10.494s-11.42-7.52-10.507-11.725c.914-4.205 1.269-20.122 1.269-20.122l9.606 2.401s-7.208-3.608-8.109-9.312c-.9-5.704 2.107-32.153 2.107-32.153s11.7 12.323 15.304 24.937c3.604 12.615 12.995 27.338 10.229 65.792-2.767 38.454-4.696 41.07-4.696 41.07zm13.185 2.948s28.173-18.789 34.429-42.76l-8.452-2.363s10.825-3.532 11.015-7.114c.191-3.583 3.427-16.451 3.427-16.451l-8.249-.165s6.586-1.271 8.553-5.717c1.967-4.446 5.343-26.296 5.343-26.296s-12.107 7.33-17.767 16.692c-5.659 9.363-16.497 19.119-22.652 50.649-6.154 31.53-5.647 33.525-5.647 33.525z" fill="#455A64"/><path d="M52.474 399.653c.045.102.079.209.101.318l.229.953c.203.902.482 2.134.85 3.696.723 3.214 1.688 7.876 2.78 13.657 2.22 11.547 4.847 27.604 6.915 45.44 2.069 17.836 3.16 34.071 3.63 45.834.24 5.882.368 10.633.393 13.974v4.802a.973.973 0 010 .331 1.044 1.044 0 010-.331v-.978c0-.927-.076-2.185-.14-3.811-.101-3.29-.304-8.041-.609-13.91-.583-11.751-1.764-27.948-3.807-45.733-2.043-17.785-4.606-33.868-6.713-45.441-1.04-5.78-1.929-10.455-2.538-13.681a685.53 685.53 0 00-.723-3.71c-.064-.406-.127-.724-.165-.978a1.093 1.093 0 01-.203-.432z" fill="#263238"/><path d="M62.664 523.36s-23.794-26.957-31.192-43.37l5.583-2.375c-4.048.66-8.185-1.08-11.32-3.722a42.44 42.44 0 01-7.69-9.541l7.348-1.27a27.352 27.352 0 01-16.066-12.411c8.68 1.422 16.498 6.186 22.982 12.144a114.445 114.445 0 0113.96 16.159 56.746 56.746 0 015.405 8.892c3.973 8.283 11.003 25.573 10.99 35.494z" fill="#455A64"/><path d="M114.25 422.138c-.02.098-.054.192-.102.28l-.355.788-1.434 3.01c-1.269 2.541-3.058 6.352-5.241 11.065-4.366 9.363-10.152 22.447-15.812 37.158-5.66 14.711-10.152 28.265-13.274 38.11-1.535 4.942-2.741 8.893-3.553 11.726l-.977 3.214-.267.826c0 .177-.101.279-.114.266-.013-.012 0-.101 0-.292l.203-.838.838-3.227c.735-2.795 1.878-6.822 3.362-11.776 2.957-9.922 7.411-23.514 13.097-38.251 5.685-14.736 11.535-27.795 16.015-37.119 2.233-4.662 4.099-8.41 5.431-10.976l1.548-2.96.419-.75c.062-.092.134-.178.216-.254zM64.682 534.946a10.95 10.95 0 01-.38-1.931c-.191-1.271-.508-3.036-.953-5.247a111.875 111.875 0 00-4.834-16.883 110.691 110.691 0 00-7.526-15.879c-1.13-1.944-2.068-3.506-2.754-4.561-.373-.538-.7-1.108-.977-1.702.444.48.843.998 1.193 1.55.749 1.029 1.764 2.541 2.944 4.484a96.5 96.5 0 017.741 15.867 96.468 96.468 0 014.67 17.035c.381 2.236.635 4.04.749 5.31.097.648.14 1.302.127 1.957z" fill="#263238"/><path d="M96.077 528.594h-52.08v10.633h52.08v-10.633z" fill="#FF725E"/><path d="M48.959 539.227L54.593 575h31.472l5.254-35.773h-42.36z" fill="#FF725E"/><path d="M92.88 539.227c0 .178-9.848.33-22.005.33-12.157 0-21.992-.152-21.992-.33 0-.178 9.847-.33 21.992-.33 12.144 0 22.004.139 22.004.33z" fill="#263238"/><path d="M319.691 548.602v26.373l53.147-.254c-.381-5.349-29.556-16.02-29.556-16.02l.584-10.162-24.175.063z" fill="#455A64"/><path opacity=".6" d="M328.308 556.313a2.29 2.29 0 00-1.447 2.63 2.066 2.066 0 002.449 1.562 2.44 2.44 0 001.523-2.807 2.102 2.102 0 00-1.897-1.4 2.108 2.108 0 00-.818.129" fill="#fff"/><path d="M319.691 574.975v-4.205l50.761.597s2.64 1.588 2.399 3.353l-53.16.255zm23.617-15.766c0 .28-1.269.42-2.538 1.271s-1.916 2.058-2.158 1.956c-.241-.101.127-1.702 1.663-2.756 1.535-1.055 3.084-.725 3.033-.471zm6.967 2.44c0 .266-1.054.749-1.916 1.918-.863 1.169-1.092 2.401-1.346 2.388-.253-.013-.444-1.55.648-2.985 1.091-1.436 2.601-1.576 2.614-1.321zm3.134 6.72c-.241.063-.622-1.271 0-2.808s1.84-2.121 1.955-1.893c.114.229-.622 1.042-1.13 2.287-.508 1.245-.571 2.388-.825 2.414zm-10.621-16.667c-.102.254-1.269-.102-2.754 0-1.485.101-2.538.635-2.716.393-.178-.241.939-1.27 2.652-1.346 1.714-.076 2.944.737 2.818.953z" fill="#263238"/><path d="M343.092 560.391a4.122 4.122 0 00.114-1.613 8.897 8.897 0 00-1.408-4.154 8.266 8.266 0 00-2.082-2.198 1.784 1.784 0 00-1.789-.318 2.055 2.055 0 00-1.053 1.741 6.98 6.98 0 004.67 6.174 6.67 6.67 0 007.183-2.135 5.089 5.089 0 00.951-1.626 1.755 1.755 0 000-1.054 1.273 1.273 0 00-.723-.762 2.193 2.193 0 00-1.65.165c-.44.201-.864.434-1.269.699a11.266 11.266 0 00-3.033 3.01c-.331.42-.58.899-.736 1.41a15.723 15.723 0 014.048-3.938c.711-.406 1.65-.991 2.399-.724.33.127.457.521.304.978a4.298 4.298 0 01-.837 1.347 6.023 6.023 0 01-6.434 1.867 6.36 6.36 0 01-4.201-5.361 1.265 1.265 0 01.622-1.143 1.266 1.266 0 011.193.229 7.815 7.815 0 011.967 1.969 9.258 9.258 0 011.561 3.811c.165 1.054.14 1.626.203 1.626z" fill="#263238"/><path d="M300.301 552.413l.901 6.796-.609 15.308-19.924.483-.711-15.791 2.272-9.387 18.071 2.591z" fill="#455A64"/><path d="M290.745 573.361c-.127 0 .165-4.675.635-10.455.469-5.78.964-10.48 1.078-10.493.114-.013-.165 4.688-.634 10.468-.47 5.78-.965 10.48-1.079 10.48z" fill="#263238"/><path d="M300.681 571.977l-20.139.228V575l20.152-.013-.013-3.01zm-20.088-8.817s.139-.317.507-.8a13.086 13.086 0 011.777-1.905 13.442 13.442 0 013.211-2.16 10.597 10.597 0 0112.423 2.299 9.322 9.322 0 011.46 2.173c.162.277.269.583.317.902a21.958 21.958 0 00-2.081-2.783 10.674 10.674 0 00-7.475-3.074 12.179 12.179 0 00-7.614 2.973c-1.637 1.359-2.449 2.452-2.525 2.375z" fill="#263238"/><path d="M290.656 125.13l-.152 68.929 29.555 1.41.863-16.768s10.495 2.083 13.198-7.623c1.739-6.237 1.269-54.422 1.269-54.422l-44.733 8.474z" fill="#B78876"/><path d="M339.247 121.497c-4.657 1.333-5.673 8.892-5.673 8.892l-7.296 16.146c-3.719-2.909-8.719-2.744-9.658 3.811-.685 4.726 5.191 5.679 5.191 5.679-3.427 5.831-5.736 10.544-10.724 16.082-5.355 6.035-8.4 6.632-14.238 6.708h-6.447s-3.159-10.252-8.997-35.875c-6.472-28.43 27.106-24.772 33.337-32.025 10.14-11.802 39.213 6.377 24.505 10.582z" fill="#263238"/><path d="M347.445 115.297a6.456 6.456 0 00-2.226-3.876 6.442 6.442 0 00-4.208-1.497 4.01 4.01 0 00-.838-5.082 6.53 6.53 0 00-5.317-1.27 19.516 19.516 0 00-5.304 1.905 9.006 9.006 0 00-3.427-4.535 10.334 10.334 0 00-5.698-1.41c-9.073 0-13.845 6.212-18.718 12.551a7.612 7.612 0 01-2.944 2.795 7.884 7.884 0 01-2.728.305 19.73 19.73 0 00-16.777 10.442c-3.172 6.136-5.545 20.326 2.678 29.218l4.949 11.065 47.373-37.577c.342.178 3.312 1.626 5.596.432 5.673-2.998 3.287-7.978 3.287-7.978.457-.317 4.784-2.439 4.302-5.488z" fill="#263238"/><path d="M303.6 152.277a10.32 10.32 0 01-.165 5.234 10.156 10.156 0 01-2.094 4.802c-.203-.102.749-2.21 1.358-4.967.609-2.757.686-5.069.901-5.069zm3.579-3.392a12.806 12.806 0 01-.279 5.082 12.524 12.524 0 01-1.561 4.802c.124-1.669.4-3.323.825-4.942.181-1.676.521-3.33 1.015-4.942zm10.228-11.382c.076.102-.761.711-1.827 1.956a19.36 19.36 0 00-3.186 5.514 47.288 47.288 0 00-1.763 6.199 9.497 9.497 0 01-.736 2.541 9.84 9.84 0 01.215-2.706 30.692 30.692 0 011.587-6.352 16.2 16.2 0 013.502-5.589 5.764 5.764 0 012.208-1.563zm4.137-7.736c.089 0 .394.66.584 1.854a12.37 12.37 0 01-.267 4.713 11.837 11.837 0 01-1.992 4.269c-.723.978-1.269 1.448-1.383 1.384-.114-.063 1.815-2.375 2.652-5.831.838-3.455.178-6.364.406-6.389zm-35.266 17.213c-.101.19-1.002-.127-2.018-.699-1.015-.572-1.764-1.169-1.662-1.359.101-.191 1.002.14 2.018.711 1.015.572 1.764 1.169 1.662 1.347zm14.277-7.355a4.201 4.201 0 01-.838 2.998c-.914 1.511-2.145 2.299-2.272 2.146-.126-.152.8-1.143 1.625-2.54.825-1.398 1.269-2.655 1.485-2.604zm4.39-2.363a5.882 5.882 0 01-1.269 3.582c-1.18 1.804-2.665 2.769-2.779 2.541-.114-.229 1.053-1.271 2.158-3.011a31.182 31.182 0 011.89-3.112zm21.827-28.888s-.558-.419-1.624-1.029a10.89 10.89 0 00-4.949-1.27 13.27 13.27 0 00-7.272 1.943 18.071 18.071 0 00-6.18 6.911 30.383 30.383 0 00-2.538 6.466l-.127.432-.393-.216a14.834 14.834 0 00-6.586-1.69 15.786 15.786 0 00-5.368.813 22.73 22.73 0 00-4.391 2.198c.285-.34.618-.635.99-.876a13.332 13.332 0 013.249-1.741 15.288 15.288 0 015.52-1.003 15.096 15.096 0 016.929 1.664l-.521.228a30.702 30.702 0 012.538-6.631 18.32 18.32 0 016.485-7.139 13.532 13.532 0 017.614-1.893c1.798.077 3.546.615 5.076 1.563.408.258.787.561 1.13.901.317.229.431.356.418.369z" fill="#455A64"/><path d="M342.318 112.134c-.063 0 .812-.229 1.688.762a2.914 2.914 0 01.685 2.16 3.36 3.36 0 01-1.726 2.464 4.896 4.896 0 01-3.591.496 10.532 10.532 0 01-3.693-1.804 35.075 35.075 0 00-3.629-2.541 14.745 14.745 0 00-4.366-1.537 18.211 18.211 0 00-8.883.61 24.332 24.332 0 00-6.586 3.354c-3.452 2.477-5.152 4.56-5.267 4.446a8.97 8.97 0 011.181-1.461 27.928 27.928 0 013.807-3.417 23.753 23.753 0 016.687-3.583 18.544 18.544 0 019.264-.686c1.604.296 3.15.844 4.581 1.626a34.263 34.263 0 013.668 2.541 9.931 9.931 0 003.439 1.753 4.386 4.386 0 003.198-.343 2.966 2.966 0 001.561-2.058 2.634 2.634 0 00-.495-1.918 2.535 2.535 0 00-1.523-.864z" fill="#455A64"/><path d="M480.007 165.044c-1.117-.991-16.168 5.323-16.168 5.323s-11.231 8.892-15.85 14.037l-2.855 2.376-42.715 33.245-52.538-21.875-11.421 29.332s58.984 23.514 67.969 19.487c9.759-4.37 46.116-42.468 46.205-42.595l5.254-5.081s2.779 0 4.885-.178c2.107-.178 8.274-4.23 8.274-4.23a11.993 11.993 0 001.193-3.595 2.302 2.302 0 00-1.142-2.604 8.212 8.212 0 00.102-2.973c-.241-1.677-2.538-3.621-2.538-3.621a5.297 5.297 0 001.408-2.655c.508-1.943-1.992-3.811-1.992-3.811s8.743-5.945 10.863-6.999c2.119-1.055 2.182-2.592 1.066-3.583z" fill="#B78876"/><path d="M357.61 465.521c.177-1.931.266-3.417.266-4.345l5.939-94.806s-4.987-27.694-7.347-35.037l-21.206-8.219-28.261 11.014c-.177-2.274-.292-3.684-.292-3.684l-41.585 14.406s-1.079 28.418 0 37.069c.355 2.782 1.434 9.959 2.753 18.42 0 0 1.346 18.382 1.625 19.411 1.002 3.748 1.269 12.932 1.269 22.13 0 11.687.634 25.597 1.37 32.203.736 6.606 1.079 79.321 1.079 79.321h30.71l3.947-115.806c.66-12.411 1.65-31.39 2.284-45.122l7.208 42.76c0 1.562 4.391 26.016 4.391 26.016a231.745 231.745 0 00-1.878 23.197c-.508 21.596-3.033 68.955-3.033 68.955h30.05s9.036-68.447 10.787-87.883h-.076z" fill="#263238"/><path d="M362.838 360.691a12.161 12.161 0 01-2.779-1.486 38.01 38.01 0 01-5.939-4.713 38.79 38.79 0 01-4.899-5.78 10.978 10.978 0 01-1.56-2.731c.696.774 1.34 1.593 1.928 2.451a53.794 53.794 0 004.988 5.603 52.367 52.367 0 005.723 4.789 22.058 22.058 0 012.538 1.867zm-53.654 17.226a3.671 3.671 0 01-.584-.94 28.163 28.163 0 01-1.269-2.744 45.301 45.301 0 01-2.804-9.591 46.006 46.006 0 01-.61-9.972c.077-1.27.178-2.299.292-3.011.023-.374.104-.743.241-1.092.102 0 0 1.588-.063 4.116a54.138 54.138 0 00.787 9.845 55.381 55.381 0 002.538 9.54c.901 2.376 1.561 3.799 1.472 3.849z" fill="#455A64"/><path d="M313.651 413.614a8.22 8.22 0 01-.394-1.651c-.22-1.203-.499-2.715-.837-4.535-.66-3.977-1.548-9.21-2.538-15.003a16115.879 16115.879 0 01-3.388-21.241 31.006 31.006 0 011.446 6.136c.736 3.811 1.65 9.134 2.614 14.99a806.588 806.588 0 012.323 15.041c.241 1.83.457 3.354.622 4.574.113.555.164 1.122.152 1.689z" fill="#455A64"/><path d="M241.177 255.481s-4.048 28.57-4.809 38.58c-.457 6.034 5.659 13.974 10.329 14.622 4.67.648 20.406 1.524 20.406 1.524l1.269-17.924-.406-3.57-4.886-.915 1.472-28.43-23.375-3.887z" fill="#B78876"/><path d="M263.943 260.333c.126.508.19 1.028.191 1.55.076 1.004.127 2.452.165 4.256.088 3.582 0 8.55-.305 13.974-.305 5.424-.749 10.417-1.091 13.974-.191 1.778-.343 3.227-.47 4.217a6.698 6.698 0 01-.266 1.538 7.042 7.042 0 010-1.563c.063-1.143.152-2.541.253-4.243.242-3.722.546-8.588.889-13.974.342-5.386.469-10.391.507-13.974v-4.243a7.308 7.308 0 01.127-1.512z" fill="#AA6550"/><path opacity=".3" d="M265.492 345.371c7.994 2.972 16.751 3.214 25.24 2.477 8.49-.737 16.891-2.452 25.381-3.252a121.417 121.417 0 0138.438 2.541 6.817 6.817 0 002.716.254 2.272 2.272 0 001.916-1.703c.229-1.422-1.332-2.413-2.652-2.959a113.267 113.267 0 00-91.281 2.032" fill="#000"/><path d="M387.901 211.133l-45.075-22.46a146.849 146.849 0 00-21.421-.94H291.57s-36.142 10.671-42.119 20.516l-15.495 46.495 30.635 4.624 3.807 33.41s-3.807 38.683-3.807 44.298a42.31 42.31 0 00.469 7.774s61.294-9.324 76.382-4.408c15.089 4.916 19.163 4.408 19.163 4.408s-1.269-16.057-2.374-25.407l-3.477-46.622-2.538-35.57 28.363 8.689 7.322-34.807z" fill="#FF725E"/><path d="M264.311 259.736c-.114 0-.418-1.918-1.091-5.017a85.248 85.248 0 00-3.553-11.853 94.98 94.98 0 00-5.254-11.331l-1.853-3.329a5.404 5.404 0 01-.622-1.27c.332.341.622.721.863 1.131a37.088 37.088 0 012.044 3.252 74.687 74.687 0 015.482 11.318 69.016 69.016 0 013.375 11.993c.279 1.562.457 2.832.546 3.722.078.457.099.922.063 1.384zm57.804 13.199a2.166 2.166 0 01-.165.623l-.571 1.715a50.661 50.661 0 01-.99 2.693c-.418 1.042-.863 2.236-1.446 3.506a106.831 106.831 0 01-4.34 8.893 126.433 126.433 0 01-6.345 10.289c-2.412 3.532-5.077 6.721-7.475 9.541-2.398 2.82-4.797 5.196-6.853 7.126-1.002.991-1.979 1.817-2.804 2.541a83.342 83.342 0 01-2.183 1.868l-1.421 1.117c-.16.141-.335.265-.521.369 0 0 .14-.178.445-.47l1.332-1.271c.584-.508 1.269-1.156 2.107-1.93.837-.775 1.751-1.614 2.728-2.617 2.005-1.957 4.289-4.396 6.713-7.191 2.424-2.794 4.937-6.021 7.399-9.514 2.461-3.494 4.568-6.987 6.345-10.163a117.789 117.789 0 004.441-8.778c.609-1.271 1.079-2.452 1.523-3.469a83.069 83.069 0 001.104-2.642c.292-.737.495-1.27.685-1.677.074-.197.172-.385.292-.559zm20.825-81.188a14.513 14.513 0 00-2.373 5.666 19.599 19.599 0 000 6.669 78.23 78.23 0 001.903 8.054 242.938 242.938 0 004.455 14.419c.596 1.727 1.091 3.176 1.497 4.332.21.521.372 1.061.482 1.613a8.459 8.459 0 01-.736-1.524 115.563 115.563 0 01-1.7-4.256c-1.371-3.621-3.097-8.702-4.658-14.406a72.636 72.636 0 01-1.814-8.092 19.4 19.4 0 01.101-6.847 12.465 12.465 0 011.752-4.281 4.766 4.766 0 011.091-1.347z" fill="#263238"/><path d="M257.89 240.694a6.45 6.45 0 01-2.411 1.638 12.13 12.13 0 01-13.198-2.019 6.362 6.362 0 01-1.802-2.274c.089-.077.749.825 2.107 1.918a12.796 12.796 0 0012.779 1.944c1.561-.636 2.462-1.296 2.525-1.207zm86.382-20.974a5.013 5.013 0 01-.368.978 35.75 35.75 0 01-1.332 2.694 37.35 37.35 0 01-6.701 8.778 30.245 30.245 0 01-14.314 7.787 26.776 26.776 0 01-9.695.419 28.43 28.43 0 01-9.81-3.493c-6.231-3.481-11.497-7.889-17.259-9.998a27.019 27.019 0 00-15.913-.877 28.172 28.172 0 00-9.886 4.536c-2.081 1.537-3.058 2.617-3.109 2.54a19.637 19.637 0 012.957-2.756 27.79 27.79 0 0126.167-4.027c5.901 2.134 11.206 6.555 17.36 9.985a28.19 28.19 0 009.581 3.506c3.157.444 6.369.315 9.48-.381a30.029 30.029 0 0014.111-7.534 38.22 38.22 0 006.802-8.562 50.118 50.118 0 001.434-2.629 6.98 6.98 0 01.495-.966zm28.223-16.298c.251.467.447.961.584 1.473.418 1.375.665 2.795.736 4.231a19.742 19.742 0 01-4.277 13.313 49.788 49.788 0 01-5.659 5.361 15.05 15.05 0 00-3.807 4.84 8.186 8.186 0 00-.851 4.04c.076.99.292 1.524.229 1.537-.064.012-.089-.115-.191-.369a4.846 4.846 0 01-.291-1.143 7.906 7.906 0 01.672-4.256 14.994 14.994 0 013.807-5.081 55.327 55.327 0 005.546-5.323 20.045 20.045 0 004.327-12.881 31.331 31.331 0 00-.825-5.742zm-73.311 107.103c-.4.214-.827.372-1.269.47-1.223.351-2.47.614-3.731.788-1.9.315-3.847.203-5.698-.33a8.442 8.442 0 01-2.982-1.677 25.759 25.759 0 01-2.437-2.668 12.705 12.705 0 00-2.538-2.363 12.39 12.39 0 00-2.906-1.397 12.854 12.854 0 00-5.444-.521c-1.241.137-2.45.48-3.578 1.016a8.875 8.875 0 01-1.269.584 4.185 4.185 0 011.142-.813 10.293 10.293 0 013.642-1.27 12.59 12.59 0 015.685.394 12.14 12.14 0 013.084 1.448 12.311 12.311 0 012.69 2.465 26.58 26.58 0 002.36 2.604 8.211 8.211 0 002.754 1.6c1.769.524 3.627.675 5.457.445 3.084-.368 5.013-.889 5.038-.775zm58.362-2.706c-.12.131-.257.246-.406.343-.406.305-.83.585-1.269.839a18.67 18.67 0 01-5.076 2.147 21.466 21.466 0 01-8.236.482 20.279 20.279 0 01-9.365-3.811 94.179 94.179 0 01-7.487-6.745 23.96 23.96 0 00-6.65-4.574 12.592 12.592 0 00-5.267-1.168c-1.269 0-2.005.216-2.017.139.161-.075.332-.131.507-.165.49-.132.992-.213 1.498-.241a12.371 12.371 0 015.469 1.003 23.52 23.52 0 016.866 4.561c2.322 2.058 4.632 4.561 7.474 6.657a19.928 19.928 0 009.048 3.684c2.679.388 5.406.28 8.046-.318a21.36 21.36 0 005.076-1.918 16.284 16.284 0 011.789-.915z" fill="#fff"/><path d="M465.413 126.807a64.886 64.886 0 01-23.481-19.06 65.005 65.005 0 01-10.757-57.864 64.96 64.96 0 0115.059-26.24 64.87 64.87 0 0125.303-16.558 64.807 64.807 0 0158.326 7.423 64.911 64.911 0 0120.358 22.37 64.986 64.986 0 017.56 39.543 64.956 64.956 0 01-17.182 36.402 64.839 64.839 0 01-35.315 19.265 64.799 64.799 0 01-39.871-5.281zm54.085-113.24a60.446 60.446 0 00-41.758-3.835 60.505 60.505 0 00-34.221 24.262 60.62 60.62 0 008.403 78.304 60.465 60.465 0 0078.581 3.804 60.581 60.581 0 0022.186-35.622 60.624 60.624 0 00-6.275-41.506 60.514 60.514 0 00-26.916-25.407z" fill="#263238"/><path d="M574.904 197.87a8.078 8.078 0 01-11.104-2.629L521.377 126.4a1.384 1.384 0 01.444-1.905l9.048-5.59a1.393 1.393 0 011.891.419l44.618 67.113a8.081 8.081 0 01-.101 9.219 8.086 8.086 0 01-2.373 2.214z" fill="#263238"/><path d="M466.974 123.529a64.895 64.895 0 01-23.498-19.058A65.016 65.016 0 01432.7 46.588a64.97 64.97 0 0115.062-26.251A64.878 64.878 0 01473.074 3.77a64.822 64.822 0 0158.348 7.433 64.933 64.933 0 0120.36 22.384 64.998 64.998 0 01-9.63 75.939 64.85 64.85 0 01-35.309 19.268 64.804 64.804 0 01-39.869-5.266zm54.085-113.24A60.45 60.45 0 00479.3 6.455a60.511 60.511 0 00-34.221 24.262 60.62 60.62 0 008.404 78.304 60.477 60.477 0 0038.588 16.432 60.462 60.462 0 0039.992-12.628 60.577 60.577 0 0022.187-35.621 60.624 60.624 0 00-6.275-41.506 60.52 60.52 0 00-26.916-25.407z" fill="#455A64"/><path d="M522.21 121.87l11.373-7.023 45.113 73.207a6.355 6.355 0 01-2.069 8.741l-.658.406a6.336 6.336 0 01-4.795.775 6.345 6.345 0 01-3.937-2.846l-45.113-73.206.086-.054z" fill="#455A64"/><path d="M446.517 49.518c.06-.678.179-1.35.355-2.007.151-.782.35-1.555.597-2.312a31.21 31.21 0 011.015-3.01l.647-1.716c.241-.597.559-1.181.851-1.816.571-1.27 1.345-2.54 2.119-3.875a50.466 50.466 0 016.218-7.977 50.868 50.868 0 017.792-6.428 43.8 43.8 0 013.807-2.224c.609-.317 1.193-.647 1.776-.914l1.701-.724a29.412 29.412 0 012.969-1.093c.751-.27 1.518-.491 2.297-.66a14.72 14.72 0 011.993-.42c-.626.265-1.271.481-1.929.648-.763.21-1.513.465-2.246.762-.989.338-1.959.728-2.906 1.17l-1.663.749c-.584.266-1.155.61-1.751.927-1.269.622-2.437 1.436-3.744 2.248a51.475 51.475 0 00-7.614 6.352 52.516 52.516 0 00-6.18 7.838c-.774 1.27-1.561 2.541-2.145 3.811-.291.61-.621 1.182-.875 1.766l-.711 1.69c-.482 1.054-.774 2.07-1.091 2.947a20.037 20.037 0 00-.685 2.274 13.03 13.03 0 01-.597 1.994z" fill="#E0E0E0"/></g><defs><clipPath id="clip0_22_2902"><path fill="#fff" d="M0 0h593v575H0z"/></clipPath></defs></svg>