<svg width="193" height="73" fill="none" xmlns="http://www.w3.org/2000/svg"><path d="M14.284 0a3.556 3.556 0 00-2.516 1.107 3.683 3.683 0 00-1.013 2.59v7.296c-.95 0-1.862.384-2.534 1.068a3.68 3.68 0 00-1.05 2.58v3.647h14.338V14.64a3.68 3.68 0 00-1.05-2.579 3.554 3.554 0 00-2.534-1.068V3.698a3.704 3.704 0 00-.264-1.425 3.654 3.654 0 00-.788-1.207 3.58 3.58 0 00-1.189-.8 3.53 3.53 0 00-1.4-.266zM25.06 21.935l-21.473.057c-.544 0-1.082.126-1.572.369s-.918.596-1.254 1.033a3.71 3.71 0 00-.653 3.13l3.48 10.001h21.507l3.444-10.059a3.71 3.71 0 00-.653-3.13 3.597 3.597 0 00-1.254-1.032 3.534 3.534 0 00-1.572-.369zm0 18.238l-21.473.057a3.55 3.55 0 00-2.826 1.401 3.71 3.71 0 00-.653 3.13l3.48 10.002h21.507l3.444-10.06a3.71 3.71 0 00-.653-3.129 3.597 3.597 0 00-1.254-1.033 3.535 3.535 0 00-1.572-.368zM3.586 58.41L.002 73h28.677l-3.585-14.59H3.586zm56.885-26.554L52.37 9.508c-.35-.913-.807-1.16-1.824-1.16h-3.998c-1.017 0-1.473.211-1.824 1.23l-8.067 22.278c-.35.949-.14 1.44.947 1.44h3.683c1.753 0 2.21-.386 2.56-1.475l.807-2.53h7.576l.806 2.53c.281 1.089.807 1.476 2.631 1.476h3.788c1.052 0 1.368-.492 1.017-1.441zM49.353 19.663l1.297 4.111h-4.384l1.298-4.146c.701-2.354.666-4.884.666-4.884h.351s.07 2.53.772 4.919zm36.949-11.35h-3.507c-1.157 0-1.473.176-1.964 1.125l-5.787 11.35-5.788-11.385c-.49-.879-.841-1.09-2.069-1.09H63.89c-1.122 0-1.508.352-1.508 1.476v22.067c0 1.09.386 1.44 1.508 1.44h3.578c1.122 0 1.508-.35 1.508-1.44v-4.99c0-2.424-.175-4.181-1.438-9.241h.35c.351 1.23 1.439 4.462 2.175 5.798l2.07 3.97c.385.773.736 1.02 1.683 1.02h2.35c.947 0 1.298-.317 1.684-1.02l1.964-3.97c.736-1.44 1.999-4.638 2.35-5.798h.385c-1.332 4.673-1.543 6.887-1.543 9.206v5.025c0 1.09.351 1.44 1.473 1.44h3.823c1.123 0 1.509-.35 1.509-1.44V9.789c0-1.124-.386-1.476-1.509-1.476zm27.26 23.543L105.46 9.508c-.351-.913-.807-1.16-1.824-1.16h-3.998c-1.018 0-1.474.211-1.824 1.23l-8.067 22.278c-.351.949-.14 1.44.947 1.44h3.682c1.754 0 2.21-.386 2.56-1.475l.807-2.53h7.576l.807 2.53c.281 1.089.807 1.476 2.631 1.476h3.788c1.052 0 1.368-.492 1.017-1.441zm-11.119-12.193l1.298 4.111h-4.384l1.298-4.146c.701-2.354.666-4.884.666-4.884h.351s.07 2.53.771 4.919zm30.111-11.314h-16.275c-1.087 0-1.473.386-1.473 1.475v3.163c0 1.124.386 1.51 1.473 1.51h8.558l-9.715 13.704a2.334 2.334 0 00-.491 1.476v2.144c0 1.089.386 1.476 1.473 1.476h16.625c1.122 0 1.473-.387 1.473-1.476v-3.198c0-1.124-.351-1.476-1.473-1.476h-8.874l9.716-13.668c.316-.457.456-.879.456-1.546V9.824c0-1.089-.351-1.475-1.473-1.475zm4.36 1.405v22.137c0 1.054.351 1.406 1.403 1.406h4.139c1.052 0 1.403-.352 1.403-1.406V9.754c0-1.054-.351-1.405-1.403-1.405h-4.139c-1.052 0-1.403.351-1.403 1.405zm30.053-1.405h-3.578c-1.122 0-1.473.386-1.473 1.475v5.763c0 3.584.456 5.27 1.579 8.89h-.281c-1.122-2.67-1.403-4.006-2.946-6.43l-5.752-8.996c-.316-.492-.667-.702-1.474-.702h-4.138c-1.123 0-1.508.386-1.508 1.475v21.997c0 1.089.385 1.476 1.508 1.476h3.542c1.123 0 1.508-.387 1.508-1.476v-5.728c0-3.9-.421-5.692-1.157-9.065h.281c.947 3.162 1.543 4.814 3.086 7.238l5.401 8.328c.316.492.702.703 1.439.703h3.963c1.087 0 1.473-.387 1.473-1.476V9.824c0-1.089-.386-1.475-1.473-1.475zm24.488 10.611h-8.873c-1.088 0-1.473.387-1.473 1.511v2.636c0 1.124.385 1.475 1.473 1.475h3.367v.703c0 1.511-1.438 2.39-3.788 2.39-2.771 0-3.858-1.195-3.858-3.655v-6.395c0-2.46 1.087-3.654 3.858-3.654 1.964 0 3.016.702 3.648 2.284.385 1.089.806 1.3 1.894.948l3.752-1.335c1.053-.351 1.298-.878.947-1.897-1.473-3.936-4.84-6.15-10.241-6.15-6.91 0-10.803 3.76-10.803 9.84v6.324c0 6.079 3.893 9.839 10.803 9.839 6.909 0 10.768-3.76 10.768-8.715v-4.638c0-1.124-.351-1.51-1.474-1.51zM55.736 41.534H38.375c-1.123 0-1.474.387-1.474 1.476v3.163c0 1.124.351 1.51 1.473 1.51H43.6v17.324c0 1.089.351 1.475 1.474 1.475h3.963c1.122 0 1.508-.386 1.508-1.475V47.683h5.191c1.123 0 1.508-.386 1.508-1.51V43.01c0-1.09-.386-1.476-1.508-1.476zm23.026 23.508L70.66 42.694c-.351-.914-.807-1.16-1.824-1.16h-3.999c-1.017 0-1.473.211-1.824 1.23l-8.066 22.278c-.351.948-.14 1.44.947 1.44h3.682c1.754 0 2.21-.386 2.56-1.475l.807-2.53h7.576l.807 2.53c.28 1.089.807 1.475 2.63 1.475h3.789c1.052 0 1.367-.492 1.017-1.44zM67.643 52.849l1.298 4.11h-4.384l1.297-4.145c.702-2.355.667-4.885.667-4.885h.35s.07 2.53.772 4.92zm13.029-9.909v22.137c0 1.054.351 1.405 1.404 1.405h4.138c1.052 0 1.403-.351 1.403-1.405V42.94c0-1.054-.35-1.406-1.403-1.406h-4.138c-1.053 0-1.403.352-1.403 1.406zm40.26-1.406h-3.894c-1.262 0-1.788.211-1.999 1.3l-1.473 9.207c-.281 1.932-.491 5.235-.526 6.219h-.281c-.035-1.054-.245-4.217-.666-6.22l-2.14-9.206c-.245-1.089-.876-1.3-1.964-1.3h-3.788c-1.122 0-1.718.176-1.964 1.3l-2.175 9.207c-.42 1.897-.666 5.165-.666 6.219h-.246c0-.984-.175-4.392-.49-6.22l-1.544-9.206c-.21-1.089-.736-1.3-1.964-1.3h-4.314c-1.087 0-1.192.457-.947 1.441l5.542 22.348c.21.948.806 1.16 1.823 1.16h4.034c.982 0 1.543-.212 1.824-1.23l1.859-8.117a35.27 35.27 0 00.771-6.325h.281c.035 2.003.21 4.11.666 6.325l1.894 8.187c.211.913.807 1.16 1.824 1.16h4.104c.982 0 1.543-.212 1.789-1.23l5.577-22.278c.245-.984.14-1.44-.947-1.44zm23.32 23.508l-8.102-22.348c-.351-.914-.807-1.16-1.824-1.16h-3.999c-1.017 0-1.473.211-1.824 1.23l-8.067 22.278c-.35.948-.14 1.44.947 1.44h3.683c1.754 0 2.21-.386 2.561-1.475l.806-2.53h7.576l.807 2.53c.281 1.089.807 1.475 2.631 1.475h3.788c1.052 0 1.367-.492 1.017-1.44zm-11.119-12.193l1.298 4.11h-4.384l1.297-4.145c.702-2.355.667-4.885.667-4.885h.351s.07 2.53.771 4.92zm32.601-11.315h-3.578c-1.122 0-1.473.387-1.473 1.476v5.763c0 3.584.456 5.27 1.578 8.89h-.28c-1.123-2.67-1.403-4.006-2.946-6.43l-5.753-8.996c-.315-.492-.666-.703-1.473-.703h-4.138c-1.123 0-1.509.387-1.509 1.476v21.997c0 1.089.386 1.475 1.509 1.475h3.542c1.122 0 1.508-.386 1.508-1.475v-5.728c0-3.9-.421-5.692-1.157-9.066h.28c.947 3.163 1.544 4.814 3.087 7.239l5.401 8.328c.316.491.702.702 1.438.702h3.964c1.087 0 1.473-.386 1.473-1.475V43.01c0-1.09-.386-1.476-1.473-1.476z" fill="#fff"/></svg>