<svg width="29" height="28" fill="none" xmlns="http://www.w3.org/2000/svg"><path d="M8.456 0C3.793 0 0 3.666 0 8.169v11.667C0 24.338 3.797 28 8.46 28h12.084C25.207 28 29 24.334 29 19.831V8.164C29 3.662 25.203 0 20.54 0H8.455zm14.502 4.667c.667 0 1.209.522 1.209 1.166 0 .644-.542 1.167-1.209 1.167s-1.208-.523-1.208-1.167.541-1.166 1.208-1.166zM14.5 7c3.998 0 7.25 3.14 7.25 7s-3.252 7-7.25 7-7.25-3.14-7.25-7 3.252-7 7.25-7zm0 2.333a4.922 4.922 0 00-3.418 1.367A4.586 4.586 0 009.667 14c0 1.238.509 2.425 1.415 3.3a4.922 4.922 0 003.418 1.367 4.922 4.922 0 003.418-1.367 4.586 4.586 0 001.415-3.3 4.587 4.587 0 00-1.415-3.3A4.922 4.922 0 0014.5 9.333z" fill="#fff"/></svg>