<svg width="31" height="25" fill="none" xmlns="http://www.w3.org/2000/svg"><path d="M31 2.96a12.771 12.771 0 01-3.653.993A6.331 6.331 0 0030.143.461a12.812 12.812 0 01-4.04 1.533A6.372 6.372 0 0021.462 0c-3.512 0-6.36 2.827-6.36 6.311 0 .495.058.978.165 1.438A18.101 18.101 0 012.158 1.154 6.294 6.294 0 004.126 9.58a6.384 6.384 0 01-2.88-.79v.08c0 3.058 2.191 5.61 5.102 6.188a6.41 6.41 0 01-2.873.109 6.362 6.362 0 005.941 4.383 12.818 12.818 0 01-7.898 2.703c-.513 0-1.02-.03-1.518-.089A18.105 18.105 0 009.75 25c11.698 0 18.093-9.617 18.093-17.958 0-.273-.006-.545-.018-.816A12.889 12.889 0 0031 2.959z" fill="#fff"/></svg>